<svg width="32" height="32" viewBox="0 0 32 32" fill="none" xmlns="http://www.w3.org/2000/svg">
<circle cx="16.0135" cy="15.7083" r="15.5201" fill="#14435D"/>
<path d="M9.06946 4.20014C5.06982 5.47275 3.21715 7.77045 2.25183 8.51795L3.51254 6.49042L5.28489 4.46207C9.95206 -0.126336 14.069 2.60939 9.06946 4.20014Z" fill="#01CBE1"/>
<path d="M19.0498 5.86279C19.7657 6.74137 21.2733 5.49671 21.9377 4.76456C26.0459 3.13757 30.6605 10.9817 29.5846 8.18125C28.8792 6.34527 25.5175 2.64946 22.3038 1.46989C22.4123 1.78173 22.5641 2.45423 22.3038 2.64946C21.9784 2.8935 21.4496 1.63259 20.6768 0.981794C19.904 0.330995 19.7006 1.02247 19.4565 1.63259C19.2125 2.24272 20.9208 1.87664 20.9615 2.40542C21.0022 2.93419 18.8057 3.58499 19.7006 3.58499C20.5954 3.58499 20.5954 4.47984 20.1887 4.43917C19.7819 4.39849 18.1549 4.76456 19.0498 5.86279Z" fill="#01CBE1"/>
<path d="M18.1594 8.17706C24.9312 2.5659 29.9008 9.31334 30.9992 12.6085C32.5642 16.7314 30.8792 23.1351 26.9023 26.6576C23.7207 29.4755 24.4846 28.4405 24.8634 27.2663C26.0375 23.2894 27.4995 15.6537 23.9544 16.9263C19.5229 18.5171 14.1826 11.4723 18.1594 8.17706Z" fill="#01CBE1"/>
<path d="M7.13779 17.8354C4.31985 14.472 1.8731 14.3129 1.00196 14.6538C-0.543368 19.8352 3.64374 26.5703 7.86703 28.9219C9.0762 27.9867 6.97872 27.38 9.52396 23.7439C12.7055 19.1988 10.6602 22.0395 7.13779 17.8354Z" fill="#01CBE1"/>
</svg>
