<svg width="24" height="24" viewBox="0 0 24 24" fill="none" xmlns="http://www.w3.org/2000/svg">
<path d="M20.5294 4.59741L4.51639 12.0569L20.5294 19.6159" stroke="#01CBE1" stroke-width="1.65626"/>
<path d="M19.3158 8.35936C21.2696 8.35936 22.854 6.77658 22.854 4.82348C22.854 2.87038 21.2696 1.28759 19.3158 1.28759C17.362 1.28759 15.7776 2.87038 15.7776 4.82348C15.7776 6.77658 17.362 8.35936 19.3158 8.35936Z" fill="#01CBE1" stroke="#01CBE1" stroke-width="0.828131"/>
<path d="M19.3158 22.9087C21.2696 22.9087 22.854 21.3259 22.854 19.3728C22.854 17.4197 21.2696 15.8369 19.3158 15.8369C17.362 15.8369 15.7776 17.4197 15.7776 19.3728C15.7776 21.3259 17.362 22.9087 19.3158 22.9087Z" fill="#01CBE1" stroke="#01CBE1" stroke-width="0.828131"/>
<path d="M4.44858 15.6543C6.40238 15.6543 7.98677 14.0715 7.98677 12.1184C7.98677 10.1653 6.40238 8.58252 4.44858 8.58252C2.49479 8.58252 0.910398 10.1653 0.910398 12.1184C0.910398 14.0715 2.49479 15.6543 4.44858 15.6543Z" fill="#01CBE1" stroke="#01CBE1" stroke-width="0.828131"/>
</svg>
