<svg width="282" height="81" viewBox="0 0 282 81" fill="none" xmlns="http://www.w3.org/2000/svg">
<path d="M36.1076 45.1797H4.11007V3.00113H36.1076V14.1307H16.8838V18.3043H35.6649V29.4339H16.8838V34.0501H36.1076V45.1797ZM82.0615 45.1797H67.0113L59.2965 32.2795L51.5817 45.1797H36.5315L50.6331 23.5529L37.48 3.00113H52.467L59.2965 15.016L65.9995 3.00113H81.113L67.9599 23.4897L82.0615 45.1797ZM96.3905 45.1797H83.6168V3.00113H106.129C110.893 3.00113 114.603 4.39233 117.258 7.17472C119.957 9.91496 121.306 13.3508 121.306 17.4822C121.306 21.5715 119.957 25.0073 117.258 27.7897C114.603 30.53 110.893 31.9001 106.129 31.9001H96.3905V45.1797ZM104.485 20.7705C105.623 20.7705 106.55 20.4965 107.267 19.9484C107.984 19.3582 108.342 18.5362 108.342 17.4822C108.342 16.3861 107.984 15.5641 107.267 15.016C106.55 14.4258 105.623 14.1307 104.485 14.1307H96.3905V20.7705H104.485ZM153.563 45.1797H124.79V3.00113H137.564V34.0501H153.563V45.1797ZM194.009 39.8678C189.625 43.915 184.144 45.9385 177.567 45.9385C170.991 45.9385 165.489 43.915 161.063 39.8678C156.678 35.7786 154.486 30.53 154.486 24.122C154.486 17.7141 156.678 12.4866 161.063 8.43945C165.489 4.35017 170.991 2.30553 177.567 2.30553C184.144 2.30553 189.625 4.35017 194.009 8.43945C198.435 12.4866 200.649 17.7141 200.649 24.122C200.649 30.53 198.435 35.7786 194.009 39.8678ZM170.232 31.6471C172.129 33.6707 174.574 34.6825 177.567 34.6825C180.561 34.6825 182.985 33.6707 184.84 31.6471C186.737 29.6236 187.685 27.1152 187.685 24.122C187.685 21.1288 186.737 18.6205 184.84 16.5969C182.985 14.5734 180.561 13.5616 177.567 13.5616C174.574 13.5616 172.129 14.5734 170.232 16.5969C168.377 18.6205 167.45 21.1288 167.45 24.122C167.45 27.1152 168.377 29.6236 170.232 31.6471ZM242.234 45.1797H227.69L221.872 31.9001H217.256V45.1797H204.482V3.00113H226.995C231.758 3.00113 235.468 4.39233 238.124 7.17472C240.822 9.91496 242.171 13.3508 242.171 17.4822C242.171 20.7705 241.412 23.4686 239.895 25.5765C238.419 27.6843 236.649 29.2442 234.583 30.2559L242.234 45.1797ZM225.034 20.7705C226.215 20.7705 227.205 20.4965 228.006 19.9484C228.807 19.3582 229.208 18.5151 229.208 17.419C229.208 16.3651 228.807 15.5641 228.006 15.016C227.205 14.4258 226.215 14.1307 225.034 14.1307H217.256V20.7705H225.034ZM278.642 45.1797H246.644V3.00113H278.642V14.1307H259.418V18.3043H278.199V29.4339H259.418V34.0501H278.642V45.1797Z" fill="#E5E5E5"/>
<path d="M21.6785 77.7773H13.6387V58.235H6.51427V51.2301H28.763V58.235H21.6785V77.7773ZM56.7721 77.7773H48.7323V67.6281H39.2198V77.7773H31.18V51.2301H39.2198V60.6231H48.7323V51.2301H56.7721V77.7773ZM80.7712 77.7773H60.6318V51.2301H80.7712V58.235H68.6717V60.8619H80.4926V67.8669H68.6717V70.7724H80.7712V77.7773ZM106.785 78.255C102.645 78.255 99.1693 77.0079 96.3567 74.5137C93.5706 71.9929 92.1776 68.6629 92.1776 64.5236C92.1776 60.3843 93.5706 57.0675 96.3567 54.5733C99.1693 52.0526 102.645 50.7922 106.785 50.7922C109.703 50.7922 112.131 51.4556 114.068 52.7823C116.032 54.109 117.491 55.7541 118.446 57.7176L111.68 61.1803C111.256 60.2782 110.605 59.5087 109.73 58.8719C108.881 58.2085 107.899 57.8768 106.785 57.8768C104.874 57.8768 103.322 58.5136 102.128 59.7873C100.934 61.0609 100.337 62.6397 100.337 64.5236C100.337 66.4075 100.934 67.9863 102.128 69.2599C103.322 70.5336 104.874 71.1704 106.785 71.1704C107.528 71.1704 108.297 71.051 109.093 70.8122C109.889 70.5734 110.499 70.2948 110.924 69.9763V69.0211H105.989V62.0161H118.924V72.8818C115.687 76.4639 111.64 78.255 106.785 78.255ZM148.489 77.7773H139.374L138.419 74.6729H128.867L127.912 77.7773H118.797L128.588 51.2301H138.698L148.489 77.7773ZM136.27 67.6679L133.643 59.1107L131.016 67.6679H136.27ZM173.244 77.7773H164.089L160.428 69.4191H157.522V77.7773H149.482V51.2301H163.652C166.65 51.2301 168.985 52.1057 170.657 53.8569C172.355 55.5816 173.204 57.7442 173.204 60.3445C173.204 62.4141 172.726 64.1123 171.771 65.439C170.842 66.7657 169.728 67.7475 168.428 68.3843L173.244 77.7773ZM162.418 62.4141C163.161 62.4141 163.784 62.2417 164.288 61.8967C164.792 61.5253 165.045 60.9946 165.045 60.3047C165.045 59.6413 164.792 59.1372 164.288 58.7923C163.784 58.4208 163.161 58.235 162.418 58.235H157.522V62.4141H162.418ZM192.696 77.7773H176.019V51.2301H192.138C194.686 51.2301 196.636 51.9199 197.989 53.2997C199.342 54.6795 200.019 56.245 200.019 57.9962C200.019 59.6148 199.595 60.968 198.745 62.0559C197.896 63.1173 196.808 63.7939 195.482 64.0858C196.941 64.2981 198.148 65.0145 199.104 66.235C200.059 67.4291 200.536 68.8752 200.536 70.5734C200.536 72.5634 199.86 74.2616 198.507 75.6679C197.153 77.0742 195.216 77.7773 192.696 77.7773ZM190.268 61.0211C190.692 61.0211 191.064 60.8752 191.382 60.5833C191.701 60.2649 191.86 59.8801 191.86 59.4291C191.86 58.978 191.701 58.6198 191.382 58.3544C191.064 58.0626 190.692 57.9166 190.268 57.9166H184.059V61.0211H190.268ZM190.507 71.0908C191.09 71.0908 191.541 70.9448 191.86 70.653C192.205 70.3346 192.377 69.9233 192.377 69.4191C192.377 68.9415 192.205 68.5435 191.86 68.2251C191.515 67.8802 191.064 67.7077 190.507 67.7077H184.059V71.0908H190.507ZM230.159 77.7773H221.045L220.089 74.6729H210.537L209.582 77.7773H200.467L210.259 51.2301H220.368L230.159 77.7773ZM217.94 67.6679L215.313 59.1107L212.686 67.6679H217.94ZM243.122 78.255C238.982 78.255 235.506 77.0079 232.694 74.5137C229.908 71.9929 228.515 68.6629 228.515 64.5236C228.515 60.3843 229.908 57.0675 232.694 54.5733C235.506 52.0526 238.982 50.7922 243.122 50.7922C246.04 50.7922 248.468 51.4556 250.405 52.7823C252.369 54.109 253.828 55.7541 254.783 57.7176L248.017 61.1803C247.593 60.2782 246.943 59.5087 246.067 58.8719C245.218 58.2085 244.236 57.8768 243.122 57.8768C241.211 57.8768 239.659 58.5136 238.465 59.7873C237.271 61.0609 236.674 62.6397 236.674 64.5236C236.674 66.4075 237.271 67.9863 238.465 69.2599C239.659 70.5336 241.211 71.1704 243.122 71.1704C243.865 71.1704 244.634 71.051 245.43 70.8122C246.226 70.5734 246.836 70.2948 247.261 69.9763V69.0211H242.326V62.0161H255.261V72.8818C252.024 76.4639 247.977 78.255 243.122 78.255ZM278.528 77.7773H258.389V51.2301H278.528V58.235H266.429V60.8619H278.25V67.8669H266.429V70.7724H278.528V77.7773Z" fill="#E5E5E5"/>
</svg>