<svg width="114" height="34" viewBox="0 0 114 34" fill="none" xmlns="http://www.w3.org/2000/svg">
<path d="M14.795 18.9521H1.91198V1.96998H14.795V6.45103H7.055V8.13143H14.6168V12.6125H7.055V14.4711H14.795V18.9521ZM33.2972 18.9521H27.2376L24.1315 13.7582L21.0253 18.9521H14.9657L20.6434 10.2447L15.3476 1.96998H21.3817L24.1315 6.80748L26.8303 1.96998H32.9153L27.6195 10.2192L33.2972 18.9521ZM39.0664 18.9521H33.9234V1.96998H42.9874C44.9054 1.96998 46.3991 2.53011 47.4684 3.65038C48.5547 4.75366 49.0979 6.13702 49.0979 7.80044C49.0979 9.44689 48.5547 10.8302 47.4684 11.9505C46.3991 13.0538 44.9054 13.6054 42.9874 13.6054H39.0664V18.9521ZM42.3254 9.12439C42.7837 9.12439 43.1571 9.01406 43.4456 8.7934C43.7342 8.55577 43.8785 8.22478 43.8785 7.80044C43.8785 7.35912 43.7342 7.02814 43.4456 6.80748C43.1571 6.56985 42.7837 6.45103 42.3254 6.45103H39.0664V9.12439H42.3254ZM62.0855 18.9521H50.501V1.96998H55.644V14.4711H62.0855V18.9521ZM78.3701 16.8135C76.6049 18.4429 74.3983 19.2577 71.7504 19.2577C69.1025 19.2577 66.8874 18.4429 65.1052 16.8135C63.3399 15.167 62.4573 13.0538 62.4573 10.4738C62.4573 7.8938 63.3399 5.78906 65.1052 4.15959C66.8874 2.51314 69.1025 1.68992 71.7504 1.68992C74.3983 1.68992 76.6049 2.51314 78.3701 4.15959C80.1524 5.78906 81.0435 7.8938 81.0435 10.4738C81.0435 13.0538 80.1524 15.167 78.3701 16.8135ZM68.797 13.5036C69.5608 14.3183 70.5453 14.7257 71.7504 14.7257C72.9555 14.7257 73.9315 14.3183 74.6783 13.5036C75.4422 12.6889 75.8241 11.6789 75.8241 10.4738C75.8241 9.26866 75.4422 8.25873 74.6783 7.44399C73.9315 6.62926 72.9555 6.22189 71.7504 6.22189C70.5453 6.22189 69.5608 6.62926 68.797 7.44399C68.0501 8.25873 67.6767 9.26866 67.6767 10.4738C67.6767 11.6789 68.0501 12.6889 68.797 13.5036ZM97.7869 18.9521H91.931L89.5887 13.6054H87.73V18.9521H82.587V1.96998H91.651C93.569 1.96998 95.0627 2.53011 96.132 3.65038C97.2183 4.75366 97.7615 6.13702 97.7615 7.80044C97.7615 9.12439 97.456 10.2107 96.8449 11.0594C96.2508 11.9081 95.5379 12.5361 94.7062 12.9435L97.7869 18.9521ZM90.8617 9.12439C91.337 9.12439 91.7358 9.01406 92.0583 8.7934C92.3808 8.55577 92.5421 8.2163 92.5421 7.77498C92.5421 7.35064 92.3808 7.02814 92.0583 6.80748C91.7358 6.56985 91.337 6.45103 90.8617 6.45103H87.73V9.12439H90.8617ZM112.445 18.9521H99.5624V1.96998H112.445V6.45103H104.705V8.13143H112.267V12.6125H104.705V14.4711H112.445V18.9521Z" fill="#E5E5E5"/>
<path d="M8.98574 31.9211H5.74871V24.0529H2.88025V21.2325H11.8382V24.0529H8.98574V31.9211ZM23.1153 31.9211H19.8783V27.8348H16.0483V31.9211H12.8113V21.2325H16.0483V25.0144H19.8783V21.2325H23.1153V31.9211ZM32.778 31.9211H24.6694V21.2325H32.778V24.0529H27.9064V25.1106H32.6658V27.9309H27.9064V29.1008H32.778V31.9211ZM43.2516 32.1134C41.585 32.1134 40.1855 31.6113 39.0531 30.6071C37.9314 29.5922 37.3705 28.2514 37.3705 26.5848C37.3705 24.9183 37.9314 23.5828 39.0531 22.5786C40.1855 21.5637 41.585 21.0563 43.2516 21.0563C44.4268 21.0563 45.4043 21.3233 46.1842 21.8575C46.9748 22.3917 47.5623 23.054 47.9469 23.8446L45.2227 25.2388C45.0518 24.8755 44.79 24.5657 44.4375 24.3093C44.0956 24.0422 43.7003 23.9087 43.2516 23.9087C42.4824 23.9087 41.8575 24.1651 41.3767 24.6779C40.896 25.1907 40.6556 25.8263 40.6556 26.5848C40.6556 27.3434 40.896 27.979 41.3767 28.4918C41.8575 29.0046 42.4824 29.261 43.2516 29.261C43.5508 29.261 43.8606 29.2129 44.1811 29.1168C44.5016 29.0206 44.7473 28.9085 44.9182 28.7803V28.3957H42.9311V25.5753H48.1392V29.9501C46.8359 31.3923 45.2067 32.1134 43.2516 32.1134ZM60.0429 31.9211H56.3732L55.9886 30.6712H52.1426L51.758 31.9211H48.0883L52.0304 21.2325H56.1007L60.0429 31.9211ZM55.1232 27.8508L54.0656 24.4055L53.0079 27.8508H55.1232ZM70.0097 31.9211H66.324L64.8497 28.5559H63.6799V31.9211H60.4429V21.2325H66.1477C67.3549 21.2325 68.2951 21.5851 68.9681 22.2902C69.6518 22.9846 69.9937 23.8553 69.9937 24.9022C69.9937 25.7355 69.8014 26.4193 69.4168 26.9534C69.0429 27.4876 68.5942 27.8829 68.0707 28.1393L70.0097 31.9211ZM65.651 25.7355C65.9501 25.7355 66.2011 25.6661 66.4041 25.5272C66.6071 25.3776 66.7086 25.164 66.7086 24.8862C66.7086 24.6191 66.6071 24.4161 66.4041 24.2773C66.2011 24.1277 65.9501 24.0529 65.651 24.0529H63.6799V25.7355H65.651ZM77.8417 31.9211H71.1272V21.2325H77.6173C78.6429 21.2325 79.4281 21.5103 79.973 22.0658C80.5178 22.6214 80.7902 23.2517 80.7902 23.9568C80.7902 24.6084 80.6193 25.1533 80.2775 25.5913C79.9356 26.0186 79.4976 26.2911 78.9634 26.4086C79.551 26.494 80.0371 26.7825 80.4217 27.2739C80.8063 27.7547 80.9986 28.3369 80.9986 29.0206C80.9986 29.8219 80.7261 30.5056 80.1813 31.0718C79.6365 31.638 78.8566 31.9211 77.8417 31.9211ZM76.8641 25.1747C77.0351 25.1747 77.1846 25.1159 77.3128 24.9984C77.441 24.8702 77.5051 24.7153 77.5051 24.5337C77.5051 24.352 77.441 24.2078 77.3128 24.101C77.1846 23.9835 77.0351 23.9247 76.8641 23.9247H74.3643V25.1747H76.8641ZM76.9603 29.229C77.1953 29.229 77.3769 29.1702 77.5051 29.0527C77.644 28.9245 77.7135 28.7589 77.7135 28.5559C77.7135 28.3636 77.644 28.2034 77.5051 28.0752C77.3663 27.9363 77.1846 27.8668 76.9603 27.8668H74.3643V29.229H76.9603ZM92.9254 31.9211H89.2557L88.8711 30.6712H85.0251L84.6405 31.9211H80.9708L84.9129 21.2325H88.9832L92.9254 31.9211ZM88.0057 27.8508L86.9481 24.4055L85.8904 27.8508H88.0057ZM98.1445 32.1134C96.4779 32.1134 95.0784 31.6113 93.9459 30.6071C92.8242 29.5922 92.2633 28.2514 92.2633 26.5848C92.2633 24.9183 92.8242 23.5828 93.9459 22.5786C95.0784 21.5637 96.4779 21.0563 98.1445 21.0563C99.3196 21.0563 100.297 21.3233 101.077 21.8575C101.868 22.3917 102.455 23.054 102.84 23.8446L100.116 25.2388C99.9446 24.8755 99.6829 24.5657 99.3303 24.3093C98.9885 24.0422 98.5932 23.9087 98.1445 23.9087C97.3753 23.9087 96.7503 24.1651 96.2696 24.6779C95.7888 25.1907 95.5484 25.8263 95.5484 26.5848C95.5484 27.3434 95.7888 27.979 96.2696 28.4918C96.7503 29.0046 97.3753 29.261 98.1445 29.261C98.4436 29.261 98.7534 29.2129 99.0739 29.1168C99.3944 29.0206 99.6401 28.9085 99.8111 28.7803V28.3957H97.824V25.5753H103.032V29.9501C101.729 31.3923 100.1 32.1134 98.1445 32.1134ZM112.4 31.9211H104.291V21.2325H112.4V24.0529H107.528V25.1106H112.288V27.9309H107.528V29.1008H112.4V31.9211Z" fill="#E5E5E5"/>
</svg>
