<svg width="28" height="28" viewBox="0 0 28 28" fill="none" xmlns="http://www.w3.org/2000/svg">
<path d="M14.2049 23.6297L13.3003 24.7834L14.2049 25.4927L15.1095 24.7834L14.2049 23.6297ZM14.2049 23.6297C15.1095 24.7834 15.1097 24.7833 15.11 24.7831L15.1106 24.7826L15.1122 24.7813L15.1172 24.7774L15.1337 24.7644L15.1924 24.7174C15.2428 24.677 15.3152 24.6184 15.4075 24.5424C15.5921 24.3905 15.8566 24.1689 16.184 23.884C16.8384 23.3146 17.7467 22.4901 18.7725 21.4617C20.8146 19.4142 23.3653 16.5156 25.293 13.1767C26.3976 11.2635 26.6084 9.31302 26.107 7.57666C25.6131 5.86622 24.4611 4.47411 23.0283 3.5703C20.5096 1.98154 16.9675 1.82427 14.2049 4.13985C11.4423 1.82427 7.90024 1.98154 5.38156 3.5703C3.94873 4.47411 2.7967 5.86623 2.30283 7.57667C1.80147 9.31303 2.01225 11.2635 3.11683 13.1767C5.04454 16.5156 7.5952 19.4142 9.63737 21.4617C10.6631 22.4901 11.5714 23.3146 12.2258 23.884C12.5532 24.1689 12.8177 24.3905 13.0023 24.5424C13.0947 24.6184 13.167 24.677 13.2174 24.7174L13.2762 24.7644L13.2927 24.7774L13.2976 24.7813L13.2993 24.7826L13.2999 24.7831C13.3001 24.7833 13.3003 24.7834 14.2049 23.6297Z" stroke="#01CBE1" stroke-width="2.93211"/>
</svg>
