<svg width="206" height="205" viewBox="0 0 206 205" fill="none" xmlns="http://www.w3.org/2000/svg">
<circle cx="103.17" cy="102.658" r="101.642" stroke="#2DA4B1" stroke-width="1.24989"/>
<circle cx="72.7923" cy="63.7415" r="7.96805" fill="white"/>
<mask id="path-3-inside-1_494_202" fill="white">
<path d="M204.404 93.8462C203.95 94.2244 204.101 94.7538 204.101 95.132C204.555 101.41 202.891 107.385 201.378 113.361C200.546 116.764 199.941 120.244 199.488 123.799C198.807 129.32 198.353 134.993 195.554 140.061C194.269 142.405 192.529 144.599 191.016 146.868C190.335 147.776 189.957 148.835 189.655 149.969C189.05 152.465 187.915 154.659 186.024 156.398C185.041 157.306 184.436 158.365 183.755 159.424C181.335 163.433 178.158 166.912 174.754 170.089C173.695 171.072 172.561 172.131 171.199 172.812C169.535 173.719 167.569 174.097 166.056 175.232C165.829 175.383 165.526 175.383 165.299 175.534C164.846 175.837 164.392 176.593 163.787 175.913C163.182 175.232 163.484 174.476 163.938 173.87C165.073 172.055 165.375 170.164 164.846 168.122C164.694 167.517 164.619 166.761 164.77 166.155C165.375 164.113 165.375 161.844 166.434 159.953C166.661 159.575 166.737 159.197 166.585 158.743C165.905 156.701 165.905 154.583 165.375 152.541C164.77 150.272 166.056 148.154 167.039 146.112C168.022 143.994 168.854 141.876 170.518 140.061C171.199 139.304 171.426 138.094 171.048 136.884C170.67 135.674 170.065 134.388 171.199 133.178C171.426 132.951 171.275 132.421 171.199 132.043C170.821 130.228 170.216 128.564 170.065 126.673C169.838 124.631 168.401 123.042 166.964 121.529C165.905 120.395 165.678 118.882 164.921 117.672C164.846 117.596 164.846 117.369 164.921 117.294C166.888 114.873 166.056 111.848 166.964 109.125C167.19 108.369 165.678 106.78 164.77 106.326C163.409 105.646 162.425 106.705 161.215 106.78C160.081 106.856 159.475 106.629 158.946 105.646C158.114 104.133 157.963 101.712 155.391 102.166C153.651 102.469 151.912 102.62 150.172 103.603C148.432 104.662 146.466 105.494 144.499 106.251C143.44 106.629 142.381 105.797 141.247 105.721C138.902 105.57 136.633 105.646 134.591 106.856C131.943 108.444 129.977 107.234 128.086 105.646C125.817 103.755 123.623 101.939 120.9 100.88C119.766 100.427 119.766 99.2164 119.539 98.3088C119.009 96.0396 117.043 95.2076 115.53 93.9218C115.228 93.6949 114.849 93.5436 114.622 93.1654C114.471 92.8629 114.32 92.5603 113.942 92.5603C111.9 92.5603 110.841 91.1232 111.143 89.081C111.37 87.5683 111.824 85.9042 110.311 84.694C109.933 84.3915 110.009 84.0889 110.387 83.7864C111.294 83.03 111.673 82.1224 111.673 80.9122C111.673 80.4584 111.748 79.9289 111.975 79.5507C113.261 77.3572 112.732 75.4663 111.219 73.7266C110.765 73.1972 110.16 72.6677 110.916 71.9113C110.992 71.8357 110.992 71.5332 110.916 71.3819C109.706 69.8691 110.462 68.5833 111.37 67.2975C111.748 66.6924 111.975 66.0873 112.278 65.4065C112.353 65.2553 112.353 65.104 112.429 65.0283C113.79 63.2887 114.547 61.2465 115.606 59.3555C116.135 58.3723 117.345 57.6915 117.799 56.4057C118.026 55.8762 118.707 55.6493 119.312 55.498C121.203 55.1198 122.413 53.9096 123.548 52.3969C124.001 51.8674 124.002 51.338 123.623 50.7329C123.169 49.9765 123.169 49.0689 123.775 48.3881C124.077 48.0856 124.153 47.783 124.228 47.4048C124.455 46.3459 125.136 45.5895 126.119 45.3626C128.162 44.9088 128.691 43.0935 128.842 41.3538C128.918 40.4462 126.8 38.8578 125.817 39.1604C125.287 39.3116 124.834 39.3116 124.304 39.3116C123.623 39.3116 123.396 39.0847 123.396 38.404C123.396 37.6476 123.245 36.9669 122.337 36.5887C121.808 36.3618 121.808 35.6054 122.111 35.2272C123.169 33.5632 122.111 32.1261 121.808 30.6133C121.732 30.2352 120.825 29.857 121.354 29.4788C121.884 29.025 122.489 28.5711 123.321 28.6468C125.892 28.9493 128.54 29.1762 131.187 29.4031C131.943 29.4788 132.322 29.1006 132.17 28.3442C131.868 27.3609 131.717 26.302 130.884 25.6213C129.599 24.5624 128.464 23.2765 126.573 23.2009C125.892 23.2009 125.59 22.6714 125.287 22.2176C126.044 21.6125 126.8 21.7638 127.632 21.9907C128.464 22.2176 129.069 22.142 128.313 20.7805C129.599 21.4612 130.431 21.1587 131.338 20.6292C131.565 20.4779 131.868 20.3267 131.717 20.0241C131.565 19.419 131.868 19.3434 132.322 19.1921C132.927 19.0408 133.607 18.587 133.532 17.9819C133.229 16.6961 133.986 16.6961 134.818 16.6961C135.196 16.6961 135.801 16.8473 135.952 16.3179C136.103 15.9397 135.574 15.7128 135.347 15.4102C135.045 15.0321 134.666 14.7295 134.364 14.427C134.137 14.1244 133.456 13.8975 133.986 13.4437C134.364 13.0655 134.969 12.6873 135.498 13.2924C135.877 13.7462 136.557 13.9731 136.784 14.5782C137.011 15.1077 137.389 15.0321 137.692 14.7295C137.994 14.427 137.767 14.1244 137.465 13.8975C136.482 13.1411 135.271 12.7629 134.364 11.9309C134.061 11.6284 133.532 11.704 133.154 11.9309C131.792 12.7629 130.658 12.2335 129.523 11.4771C128.994 11.0989 128.464 10.7207 127.935 10.3425C126.498 9.35925 126.498 9.20798 127.859 8.14905C128.54 7.61959 128.162 6.25812 127.178 5.8043C126.951 5.72866 126.724 5.65302 126.498 5.57739C126.573 4.82101 127.708 5.1992 127.708 4.36719C130.431 4.66974 133.002 5.65302 135.574 6.56067C152.441 12.2335 166.964 21.5369 178.914 34.6978C189.957 46.8754 197.672 60.9439 201.908 76.8278C202.135 77.7354 202.513 78.6431 202.513 79.5507C202.589 80.8365 202.362 82.1224 201.984 83.4082C201.53 84.8453 201.757 86.1312 202.135 87.2657C202.74 86.2824 202.362 84.8453 203.421 83.7864C203.875 87.1144 204.328 90.4425 204.404 93.8462Z"/>
</mask>
<path d="M204.404 93.8462C203.95 94.2244 204.101 94.7538 204.101 95.132C204.555 101.41 202.891 107.385 201.378 113.361C200.546 116.764 199.941 120.244 199.488 123.799C198.807 129.32 198.353 134.993 195.554 140.061C194.269 142.405 192.529 144.599 191.016 146.868C190.335 147.776 189.957 148.835 189.655 149.969C189.05 152.465 187.915 154.659 186.024 156.398C185.041 157.306 184.436 158.365 183.755 159.424C181.335 163.433 178.158 166.912 174.754 170.089C173.695 171.072 172.561 172.131 171.199 172.812C169.535 173.719 167.569 174.097 166.056 175.232C165.829 175.383 165.526 175.383 165.299 175.534C164.846 175.837 164.392 176.593 163.787 175.913C163.182 175.232 163.484 174.476 163.938 173.87C165.073 172.055 165.375 170.164 164.846 168.122C164.694 167.517 164.619 166.761 164.77 166.155C165.375 164.113 165.375 161.844 166.434 159.953C166.661 159.575 166.737 159.197 166.585 158.743C165.905 156.701 165.905 154.583 165.375 152.541C164.77 150.272 166.056 148.154 167.039 146.112C168.022 143.994 168.854 141.876 170.518 140.061C171.199 139.304 171.426 138.094 171.048 136.884C170.67 135.674 170.065 134.388 171.199 133.178C171.426 132.951 171.275 132.421 171.199 132.043C170.821 130.228 170.216 128.564 170.065 126.673C169.838 124.631 168.401 123.042 166.964 121.529C165.905 120.395 165.678 118.882 164.921 117.672C164.846 117.596 164.846 117.369 164.921 117.294C166.888 114.873 166.056 111.848 166.964 109.125C167.19 108.369 165.678 106.78 164.77 106.326C163.409 105.646 162.425 106.705 161.215 106.78C160.081 106.856 159.475 106.629 158.946 105.646C158.114 104.133 157.963 101.712 155.391 102.166C153.651 102.469 151.912 102.62 150.172 103.603C148.432 104.662 146.466 105.494 144.499 106.251C143.44 106.629 142.381 105.797 141.247 105.721C138.902 105.57 136.633 105.646 134.591 106.856C131.943 108.444 129.977 107.234 128.086 105.646C125.817 103.755 123.623 101.939 120.9 100.88C119.766 100.427 119.766 99.2164 119.539 98.3088C119.009 96.0396 117.043 95.2076 115.53 93.9218C115.228 93.6949 114.849 93.5436 114.622 93.1654C114.471 92.8629 114.32 92.5603 113.942 92.5603C111.9 92.5603 110.841 91.1232 111.143 89.081C111.37 87.5683 111.824 85.9042 110.311 84.694C109.933 84.3915 110.009 84.0889 110.387 83.7864C111.294 83.03 111.673 82.1224 111.673 80.9122C111.673 80.4584 111.748 79.9289 111.975 79.5507C113.261 77.3572 112.732 75.4663 111.219 73.7266C110.765 73.1972 110.16 72.6677 110.916 71.9113C110.992 71.8357 110.992 71.5332 110.916 71.3819C109.706 69.8691 110.462 68.5833 111.37 67.2975C111.748 66.6924 111.975 66.0873 112.278 65.4065C112.353 65.2553 112.353 65.104 112.429 65.0283C113.79 63.2887 114.547 61.2465 115.606 59.3555C116.135 58.3723 117.345 57.6915 117.799 56.4057C118.026 55.8762 118.707 55.6493 119.312 55.498C121.203 55.1198 122.413 53.9096 123.548 52.3969C124.001 51.8674 124.002 51.338 123.623 50.7329C123.169 49.9765 123.169 49.0689 123.775 48.3881C124.077 48.0856 124.153 47.783 124.228 47.4048C124.455 46.3459 125.136 45.5895 126.119 45.3626C128.162 44.9088 128.691 43.0935 128.842 41.3538C128.918 40.4462 126.8 38.8578 125.817 39.1604C125.287 39.3116 124.834 39.3116 124.304 39.3116C123.623 39.3116 123.396 39.0847 123.396 38.404C123.396 37.6476 123.245 36.9669 122.337 36.5887C121.808 36.3618 121.808 35.6054 122.111 35.2272C123.169 33.5632 122.111 32.1261 121.808 30.6133C121.732 30.2352 120.825 29.857 121.354 29.4788C121.884 29.025 122.489 28.5711 123.321 28.6468C125.892 28.9493 128.54 29.1762 131.187 29.4031C131.943 29.4788 132.322 29.1006 132.17 28.3442C131.868 27.3609 131.717 26.302 130.884 25.6213C129.599 24.5624 128.464 23.2765 126.573 23.2009C125.892 23.2009 125.59 22.6714 125.287 22.2176C126.044 21.6125 126.8 21.7638 127.632 21.9907C128.464 22.2176 129.069 22.142 128.313 20.7805C129.599 21.4612 130.431 21.1587 131.338 20.6292C131.565 20.4779 131.868 20.3267 131.717 20.0241C131.565 19.419 131.868 19.3434 132.322 19.1921C132.927 19.0408 133.607 18.587 133.532 17.9819C133.229 16.6961 133.986 16.6961 134.818 16.6961C135.196 16.6961 135.801 16.8473 135.952 16.3179C136.103 15.9397 135.574 15.7128 135.347 15.4102C135.045 15.0321 134.666 14.7295 134.364 14.427C134.137 14.1244 133.456 13.8975 133.986 13.4437C134.364 13.0655 134.969 12.6873 135.498 13.2924C135.877 13.7462 136.557 13.9731 136.784 14.5782C137.011 15.1077 137.389 15.0321 137.692 14.7295C137.994 14.427 137.767 14.1244 137.465 13.8975C136.482 13.1411 135.271 12.7629 134.364 11.9309C134.061 11.6284 133.532 11.704 133.154 11.9309C131.792 12.7629 130.658 12.2335 129.523 11.4771C128.994 11.0989 128.464 10.7207 127.935 10.3425C126.498 9.35925 126.498 9.20798 127.859 8.14905C128.54 7.61959 128.162 6.25812 127.178 5.8043C126.951 5.72866 126.724 5.65302 126.498 5.57739C126.573 4.82101 127.708 5.1992 127.708 4.36719C130.431 4.66974 133.002 5.65302 135.574 6.56067C152.441 12.2335 166.964 21.5369 178.914 34.6978C189.957 46.8754 197.672 60.9439 201.908 76.8278C202.135 77.7354 202.513 78.6431 202.513 79.5507C202.589 80.8365 202.362 82.1224 201.984 83.4082C201.53 84.8453 201.757 86.1312 202.135 87.2657C202.74 86.2824 202.362 84.8453 203.421 83.7864C203.875 87.1144 204.328 90.4425 204.404 93.8462Z" stroke="#2DA4B1" stroke-width="2.49978" mask="url(#path-3-inside-1_494_202)"/>
<path d="M6.07503 74.756C6.64624 72.6301 7.35027 70.5198 8.19436 68.425C8.31722 68.423 8.42598 68.3914 8.5104 68.3576C7.86841 69.6079 7.38062 70.8947 6.93947 72.1749C6.76696 72.6755 6.60308 73.1703 6.44033 73.6616C6.31897 74.028 6.19824 74.3924 6.07503 74.756ZM13.4856 86.5471C13.4856 86.547 13.4862 86.5475 13.4874 86.5485C13.4862 86.5476 13.4855 86.5471 13.4856 86.5471Z" stroke="#2DA4B1" stroke-width="1.24989"/>
<path d="M15.2317 59.4864C15.2233 59.7064 15.2728 59.9225 15.3844 60.1235L15.0248 60.3033C14.9917 60.3199 14.9595 60.3371 14.9282 60.3549C15.0399 60.0633 15.1393 59.7728 15.2317 59.4864ZM16.507 52.0326C16.2515 51.9368 15.9907 51.9224 15.7436 51.9889C17.8428 48.2373 20.3148 44.7169 22.983 41.2778C30.1236 32.1078 38.693 24.3647 48.5439 18.0481L48.5439 18.0482L48.5532 18.042C48.5877 18.0191 48.6201 17.9981 48.6518 17.9781C48.7167 18.041 48.793 18.1027 48.8824 18.1553C49.0746 18.2683 49.3008 18.3237 49.5485 18.2971C49.7813 18.272 49.999 18.1785 50.1999 18.0532C50.5332 17.8481 50.8682 17.6653 51.2153 17.4758C51.364 17.3946 51.5148 17.3122 51.6688 17.2264C52.1656 16.9494 52.676 16.6452 53.1351 16.2705C53.9775 15.6117 54.8596 15.0416 55.7689 14.4543L55.7797 14.4473C56.6661 13.8748 57.5786 13.2855 58.4577 12.6015C59.7783 11.8918 61.1162 11.2368 62.4702 10.6259C62.4576 10.7618 62.4658 10.8992 62.4888 11.0338C62.5472 11.5197 62.4374 11.5844 62.4312 11.588L62.4309 11.5882C62.3995 11.6146 62.3352 11.6528 62.1944 11.7004C62.0878 11.7364 61.976 11.7661 61.8349 11.8036C61.7861 11.8166 61.7338 11.8305 61.677 11.8459C61.4664 11.8891 61.1683 11.9668 60.8916 12.156C60.585 12.3658 60.3441 12.6849 60.2317 13.1348L60.0272 13.9526L60.8692 13.9105C61.762 13.8659 62.5019 13.5312 63.168 13.1842C62.8839 13.5963 62.6135 13.9521 62.3028 14.2657C62.0289 14.503 61.7025 14.842 61.6451 15.3203C61.5849 15.8222 61.8408 16.2586 62.1715 16.6348C62.4039 16.9369 62.5344 17.2072 62.5498 17.4322C62.5616 17.605 62.5142 17.8523 62.1159 18.1652L62.1116 18.1686C61.5096 18.6502 60.9443 19.2313 60.4232 19.7669C60.3076 19.8857 60.1942 20.0023 60.0831 20.115C60.053 20.0517 60.0025 19.9629 59.9184 19.8787L59.6619 19.6223L59.3121 19.7177C58.5861 19.9157 57.8898 20.263 57.2632 20.5756C57.1088 20.6527 56.9585 20.7276 56.8131 20.7977C56.0402 21.1702 55.355 21.4354 54.6357 21.4354C54.4252 21.4354 54.1979 21.4294 53.9603 21.4231C53.3443 21.407 52.6588 21.389 52.0157 21.4684C51.0759 21.5846 50.1194 21.9109 49.2774 22.753L48.9928 23.0375L49.1341 23.4143C49.2517 23.7278 49.4706 23.9208 49.7128 24.0228C49.69 24.0315 49.667 24.0403 49.6443 24.0494C49.1438 24.2396 48.8822 24.6186 48.7202 24.8718C48.695 24.9112 48.6722 24.947 48.6515 24.9796C48.513 25.1972 48.466 25.2711 48.3893 25.3222C48.1081 25.5097 47.9128 25.8396 47.9908 26.2295C48.0547 26.5491 48.2778 26.7668 48.465 26.8916L48.4773 26.8999L48.4901 26.9075C48.5971 26.9717 48.6865 27.0325 48.7892 27.1024C48.8627 27.1523 48.943 27.2069 49.0414 27.2707C49.1955 27.3706 49.3789 27.4816 49.5829 27.5676C49.3693 27.6536 49.1454 27.7543 48.9411 27.8796C48.3861 28.2121 47.7825 28.4181 47.106 28.6489C46.9476 28.703 46.7852 28.7584 46.6185 28.8171C46.2184 28.9581 45.8021 29.1162 45.3918 29.3217C45.4086 29.3002 45.4254 29.279 45.4421 29.2581L44.5984 28.3538C43.8776 28.8528 43.0918 29.2055 42.247 29.5847C42.0073 29.6922 41.7629 29.8019 41.5139 29.9177C40.4244 30.4242 39.2919 31.0319 38.3734 32.0684C38.3472 32.0937 38.3271 32.1101 38.2966 32.135C38.2737 32.1537 38.2449 32.1772 38.2033 32.2129C38.1195 32.2847 37.9852 32.4073 37.8903 32.597L37.8651 32.6474L37.8494 32.7015C37.646 33.3988 37.2267 33.7753 36.6634 34.073C36.3687 34.2288 36.0471 34.3561 35.6894 34.4965L35.6688 34.5046C35.3308 34.6373 34.9576 34.7838 34.6084 34.968C33.5502 35.499 32.7349 36.3607 32.025 37.111C31.8448 37.3014 31.6714 37.4847 31.5026 37.6535L31.4969 37.6592L31.4914 37.665C31.1855 37.987 30.8691 38.302 30.5449 38.6248C30.4962 38.6733 30.4473 38.722 30.3983 38.7708C30.0257 39.1422 29.6456 39.5246 29.2804 39.9239C28.5496 40.7229 27.8599 41.6092 27.3683 42.6743L27.3647 42.6821L27.3613 42.69C27.0076 43.5154 26.3222 44.0125 25.5057 44.6048C25.4642 44.6349 25.4223 44.6653 25.3801 44.696C20.8888 47.8188 17.9646 52.0634 16.3908 57.2552C16.3751 57.2638 16.3594 57.2729 16.3439 57.2825C16.1597 57.3971 16.0484 57.5575 15.9849 57.7099C15.9246 57.8545 15.9021 58.0122 15.8938 58.1413C15.7848 58.2781 15.6697 58.4265 15.572 58.5735C15.5341 58.6305 15.4952 58.6925 15.4579 58.7589C15.4682 58.7249 15.4785 58.6911 15.4888 58.6574C15.8483 57.4746 16.1633 56.4386 16.7961 55.5527L16.802 55.5445L16.8075 55.5361C16.9334 55.3474 17.0131 55.1219 17.066 54.972C17.0726 54.9532 17.079 54.9349 17.0852 54.9173C17.1382 54.7668 17.1766 54.6575 17.2247 54.5613L17.2446 54.5216L17.2586 54.4794C17.4051 54.04 17.4344 53.5662 17.3424 53.1461C17.2531 52.7376 17.0238 52.2872 16.567 52.0588L16.5377 52.0442L16.507 52.0326ZM73.667 6.46679C73.9493 6.37268 74.2324 6.28806 74.5187 6.20727C73.5051 7.01293 72.4324 7.52941 70.9807 7.37217C70.9556 7.36835 70.9306 7.36522 70.9055 7.36282C71.817 7.0567 72.7342 6.76007 73.6568 6.4701L73.6568 6.47019L73.667 6.46679ZM69.6613 8.12114C69.0576 8.84555 68.2 9.1865 67.2187 9.40488C67.2131 9.4044 67.2053 9.40375 67.1935 9.40279C67.1445 9.39882 67.0489 9.3916 66.9428 9.40339C66.8321 9.41569 66.6774 9.45176 66.5283 9.55971C66.379 9.66782 66.2823 9.81394 66.2272 9.96798C66.1272 10.221 66.0462 10.3326 66.0062 10.3774C66 10.3747 65.9928 10.3715 65.9847 10.3677C65.8816 10.3187 65.7744 10.2392 65.6085 10.1164C65.5822 10.0969 65.5544 10.0762 65.5248 10.0545L65.5205 10.0513C65.3575 9.93113 65.083 9.72873 64.7722 9.65469C64.7622 9.65197 64.752 9.64927 64.7418 9.6466C66.4819 8.92958 68.2468 8.27418 70.0342 7.659C70.0124 7.67983 69.9923 7.70056 69.9738 7.72074C69.8953 7.80629 69.8293 7.90175 69.7902 7.9583C69.786 7.96432 69.7821 7.96989 69.7786 7.97497C69.7311 8.04322 69.7122 8.06659 69.6995 8.07931L69.6794 8.09936L69.6613 8.12114ZM66.0429 10.3903C66.0429 10.3904 66.0421 10.3902 66.0403 10.3898L66.0429 10.3903ZM58.933 21.9257C58.9351 21.9362 58.9372 21.9466 58.9395 21.9571C58.9975 22.2642 59.1425 22.5762 59.4647 22.7526C59.6803 22.8707 59.9069 22.8833 60.0563 22.8788C59.9416 23.2611 59.8848 23.7152 60.001 24.2381L60.0059 24.2603L60.0125 24.2821C60.0358 24.3599 60.0259 24.3897 60.0232 24.3979L60.0231 24.3983C60.0175 24.4154 59.999 24.4548 59.9328 24.521C59.864 24.5898 59.7714 24.661 59.6424 24.7527C59.622 24.7672 59.6 24.7827 59.5769 24.799C59.4903 24.86 59.3874 24.9325 59.2911 25.0082C59.2788 24.9714 59.2662 24.9272 59.2545 24.8746L59.2528 24.8666L59.2508 24.8586C59.1967 24.6425 59.0613 24.4253 58.8176 24.3035C58.5964 24.1929 58.3766 24.2069 58.2299 24.2384C58.0631 24.2741 57.9071 24.3489 57.7725 24.4386C57.7652 24.4248 57.7577 24.4111 57.75 24.3976L57.5151 23.9865L57.0558 24.1013C56.6775 24.1959 56.2789 24.2477 55.8308 24.2684C56.8912 23.4611 57.9163 22.6891 58.933 21.9257ZM15.9229 60.9506L15.9581 60.7048C16.1189 60.809 16.3008 60.901 16.4989 60.9844L16.521 60.9937L16.5438 61.0013C16.7098 61.0567 16.7359 61.1415 16.739 61.1603C16.7405 61.1695 16.7587 61.2995 16.513 61.5001C15.6807 62.1074 15.731 63.0527 15.919 63.6239C16.0559 64.0708 16.0727 64.3663 16.0159 64.573C15.9679 64.7475 15.8432 64.9461 15.4675 65.1498C15.2666 65.2536 15.1317 65.4171 15.0654 65.4991C15.0456 65.5236 15.0227 65.553 15.0023 65.5792C14.9952 65.5641 14.988 65.5471 14.9806 65.5279C14.9333 65.4035 14.9043 65.2491 14.8665 65.0235C14.8098 64.199 15.0637 63.3368 15.4273 62.4641L15.4361 62.443L15.4433 62.4214C15.4874 62.289 15.5327 62.1794 15.5858 62.0509C15.6167 61.9761 15.6502 61.8949 15.6877 61.7991C15.781 61.5608 15.8754 61.2832 15.9229 60.9506ZM14.8771 65.7285C14.8771 65.7285 14.8778 65.7279 14.8792 65.7268C14.8778 65.728 14.8771 65.7286 14.8771 65.7285Z" stroke="#2DA4B1" stroke-width="1.24989"/>
<path d="M94.2585 2.25934C97.3126 1.95893 100.334 1.82533 103.369 1.83653C102.887 2.16768 102.451 2.57953 102.047 3.04116L102.038 3.05153L102.029 3.06229C101.873 3.25777 101.61 3.37373 101.205 3.44135L101.205 3.4413L101.197 3.44257C99.0761 3.82138 96.9926 4.19284 94.8399 4.34164C94.0041 4.38675 93.2324 4.6935 92.5646 4.96248L92.5171 4.98159C91.8389 5.25488 91.2605 5.48789 90.6642 5.55288C86.9981 5.79608 84.073 7.71192 81.3607 9.59546L81.3588 9.5968C81.029 9.82766 80.7307 9.95763 80.4553 9.98892C80.2 10.0179 79.9151 9.96829 79.5798 9.74801C79.1142 9.40706 78.6368 9.40774 78.3431 9.40816C78.3411 9.40817 78.3392 9.40817 78.3372 9.40817C77.9485 9.37583 77.7737 9.23095 77.7156 9.1398C77.6732 9.07306 77.6169 8.91585 77.791 8.6142C78.4153 7.6001 78.9876 6.76275 79.8689 6.46719C80.7792 6.17684 81.5734 5.70479 82.2981 5.2625C82.3469 5.23267 82.3954 5.203 82.4436 5.17352C83.1304 4.7536 83.7549 4.37167 84.4357 4.11233L84.4648 4.10123L84.48 4.09364C84.4849 4.09207 84.4971 4.08811 84.5201 4.08127C84.5204 4.08119 84.521 4.08101 84.5221 4.08073C84.5398 4.07589 84.6682 4.04084 84.7711 3.97912C84.8167 3.95175 85.0213 3.8267 85.0813 3.55422C85.0814 3.55366 85.0816 3.55311 85.0817 3.55255C88.0376 2.80204 91.1144 2.53278 94.2515 2.25999L94.2515 2.26003L94.2585 2.25934Z" stroke="#2DA4B1" stroke-width="1.24989"/>
<path d="M126.15 19.1673C125.546 19.2104 124.945 19.3003 124.353 19.4095C124.384 19.3452 124.412 19.2764 124.432 19.206C124.473 19.0621 124.497 18.8699 124.435 18.6606C124.371 18.4454 124.236 18.2781 124.073 18.1562L124.059 18.1458L124.045 18.1361C123.95 18.0727 123.851 18.023 123.768 17.9846C123.727 17.9652 123.683 17.9461 123.642 17.9284L124.322 17.3938L123.712 17.0033C123.771 16.9853 123.832 16.9634 123.891 16.9365C124.019 16.8775 124.266 16.7365 124.367 16.4334L124.449 16.1878L124.333 15.9562C124.09 15.47 123.668 14.8493 122.911 14.7147C122.764 14.6827 122.613 14.6588 122.487 14.6388C122.451 14.6332 122.417 14.6279 122.386 14.6228C122.226 14.5965 122.109 14.5724 122.011 14.5385C121.856 14.4855 121.732 14.4084 121.62 14.1618L121.608 14.1355L121.594 14.1104C121.46 13.8759 121.258 13.6778 120.974 13.5956C120.734 13.5262 120.518 13.5649 120.378 13.6035C120.216 13.2857 120.007 13.0169 119.785 12.7819C119.658 12.6461 119.517 12.5132 119.375 12.3855C119.451 12.31 119.515 12.2383 119.568 12.1793C119.59 12.1547 119.61 12.1322 119.628 12.1126C119.838 11.8855 119.905 11.8598 119.993 11.8646C120.124 11.8837 120.242 11.8719 120.325 11.859C120.359 11.8536 120.393 11.8469 120.426 11.8398V11.8401V11.8405V11.8409V11.8413V11.8417V11.8421V11.8425V11.8429V11.8433V11.8437V11.8441V11.8445V11.8449V11.8453V11.8457V11.8461V11.8465V11.8469V11.8473V11.8477V11.8481V11.8484V11.8488V11.8492V11.8496V11.85V11.8504V11.8508V11.8512V11.8515V11.8519V11.8523V11.8527V11.8531V11.8535V11.8538V11.8542V11.8546V11.855V11.8554V11.8557V11.8561V11.8565V11.8569V11.8573V11.8576V11.858V11.8584V11.8587V11.8591V11.8595V11.8599V11.8602V11.8606V11.861V11.8613V11.8617V11.8621V11.8624V11.8628V11.8632V11.8635V11.8639V11.8643V11.8646V11.865V11.8653V11.8657V11.8661V11.8664V11.8668V11.8671V11.8675V11.8678V11.8682V11.8686V11.8689V11.8693V11.8696V11.87V11.8703V11.8707V11.871V11.8714V11.8717V11.872V11.8724V11.8727V11.8731V11.8734V11.8738V11.8741V11.8744V11.8748V11.8751V11.8755V11.8758V11.8761V11.8765V11.8768V11.8771V11.8775V11.8778V11.8781V11.8784V11.8788V11.8791V11.8794V11.8798V11.8801V11.8804V11.8807V11.8811V11.8814V11.8817V11.882V11.8823V11.8826V11.883V11.8833V11.8836V11.8839V11.8842V11.8845V11.8848V11.8852V11.8855V11.8858V11.8861V11.8864V11.8867V11.887V11.8873V11.8876V11.8879V11.8882V11.8885V11.8888V11.8891V11.8894V11.8897V11.89V11.8903V11.8906V11.8909V11.8912V11.8914V11.8917V11.892V11.8923V11.8926V11.8929V11.8932V11.8934V11.8937V11.894V11.8943V11.8946V11.8948V11.8951V11.8954V11.8957V11.8959V11.8962V11.8965V11.8967V11.897V11.8973V11.8975V11.8978V11.8981V11.8983V11.8986V11.8989V11.8991V11.8994V11.8996V11.8999V11.9002V11.9004V11.9007V11.9009V11.9012V11.9014V11.9017V11.9019V11.9022V11.9024V11.9026V11.9029V11.9031V11.9034V11.9036V11.9038V11.9041V11.9043V11.9045V11.9048V11.905V11.9052V11.9055V11.9057V11.9059V11.9062V11.9064V11.9066V11.9068V11.907V11.9073V11.9075V11.9077V11.9079V11.9081V11.9083V11.9086V11.9088V11.909V11.9092V11.9094V11.9096V11.9098V11.91V11.9102V11.9104V11.9106V11.9108V11.911V11.9112V11.9114V11.9116V11.9118V11.912V11.9122V11.9124V11.9125V11.9127V11.9129V11.9131V11.9133V11.9135V11.9136V11.9138V11.914V11.9142V11.9143V11.9145V11.9147V11.9148V11.915V11.9152V11.9153V11.9155V11.9157V11.9158V11.916V11.9161V11.9163V11.9165V11.9166V11.9168V11.9169V11.9171V11.9172V11.9174V11.9175V11.9177V11.9178V11.9179V11.9181V11.9182V11.9184V11.9185V11.9186V11.9188V11.9189V11.919V11.9191V11.9193V11.9194V11.9195V11.9196V11.9198V11.9199V11.92V11.9201V11.9202V11.9204V11.9205V11.9206V11.9207V11.9208V11.9209V11.921V11.9211V11.9212V11.9213V11.9214V11.9215V11.9216V11.9217V11.9218V11.9219V11.922V11.9221V11.9221V11.9222V11.9223V11.9224V11.9225V11.9225V11.9226V11.9227V11.9228V11.9228V11.9229V11.923V11.923V11.9231V11.9232V11.9232V11.9233V11.9234V11.9234V11.9235V11.9235V11.9236V11.9236V11.9237V11.9237V11.9238V11.9238V11.9239V11.9239V11.9239V11.924V11.924V11.9241V11.9241V11.9241V11.9242V11.9242V11.9242V11.9242V11.9243V11.9243V11.9243V11.9243V11.9243V11.9243V11.9244V11.9244V11.9244V11.9244V11.9244V11.9244V11.9244V12.5493H121.051C121.916 12.5493 122.432 13.0339 123.068 13.7917C123.127 13.8619 123.188 13.9354 123.25 14.0113C123.811 14.6934 124.526 15.5636 125.659 15.8574L125.659 15.8575L125.671 15.8604C126.342 16.02 126.915 16.3892 127.591 16.8336C127.602 16.8412 127.614 16.8489 127.626 16.8565C128.265 17.2768 129.006 17.7636 129.907 17.9782L129.918 17.9809L129.929 17.9831C130.075 18.0121 130.171 18.0964 130.236 18.2448C130.308 18.4109 130.322 18.6278 130.278 18.8071L130.276 18.8151L130.274 18.8231C130.241 18.9691 130.183 19.0237 130.093 19.0669C129.965 19.1283 129.757 19.1657 129.447 19.1657C129.127 19.1657 128.785 19.1579 128.433 19.1499C127.685 19.1328 126.887 19.1147 126.15 19.1673ZM120.007 13.7324C120.008 13.7322 120.01 13.7315 120.015 13.7307C120.01 13.7321 120.007 13.7325 120.007 13.7324Z" stroke="#2DA4B1" stroke-width="1.24989"/>
<path d="M119.626 14.9888C119.683 14.9888 119.74 14.986 119.788 14.9828C119.979 15.1735 120.074 15.4249 120.149 15.7862C120.172 15.899 120.192 16.0156 120.214 16.1439L120.217 16.162C120.238 16.2819 120.26 16.4125 120.286 16.5428C120.321 16.715 120.365 16.9009 120.431 17.0896C119.985 17.1609 119.56 17.3017 119.193 17.4229C119.088 17.4578 118.987 17.4911 118.892 17.5207C118.341 17.6924 117.89 17.7806 117.419 17.6707C117.352 17.6541 117.282 17.6382 117.218 17.6239C117.203 17.6204 117.188 17.617 117.173 17.6137C117.106 17.5982 117.045 17.584 116.99 17.5693C117.009 17.5438 117.031 17.5159 117.057 17.4854C117.138 17.3987 117.222 17.279 117.282 17.1583C117.315 17.0927 117.362 16.9862 117.38 16.8585C117.393 16.7693 117.401 16.5925 117.308 16.416C117.21 16.1681 117.034 15.9795 116.916 15.8628C116.847 15.7947 116.776 15.7301 116.714 15.6745C116.812 15.6156 116.908 15.5561 117.001 15.4988C117.045 15.4716 117.088 15.4449 117.131 15.419C117.379 15.2668 117.608 15.1319 117.838 15.0253C118.253 14.8324 118.632 14.7496 119.041 14.8436C119.267 14.9799 119.506 14.9888 119.626 14.9888ZM116.352 15.8828C116.352 15.8828 116.352 15.8822 116.354 15.881C116.353 15.8822 116.352 15.8828 116.352 15.8828ZM116.437 15.409C116.437 15.409 116.438 15.4101 116.439 15.412C116.438 15.41 116.437 15.409 116.437 15.409Z" stroke="#2DA4B1" stroke-width="1.24989"/>
<path d="M13.476 70.4616L13.48 70.4508L13.4837 70.4398C13.589 70.124 13.6501 69.6475 13.6286 69.165C13.6075 68.6899 13.5025 68.1128 13.1933 67.6406C13.1734 67.6071 13.1534 67.5717 13.1295 67.5292L13.1259 67.5228C13.0996 67.4761 13.0676 67.4194 13.0336 67.3639C12.9712 67.2622 12.8671 67.1043 12.7097 66.9806C12.5263 66.8365 12.277 66.7445 11.9868 66.7929C11.7336 66.8351 11.5212 66.9733 11.3496 67.1204L11.3367 67.1314C11.3297 67.1224 11.323 67.1137 11.3165 67.1053C11.2584 67.0307 11.2206 66.9821 11.1879 66.9302C11.1426 66.8585 11.1372 66.8297 11.1418 66.8039C11.4759 65.9523 11.9477 65.43 12.6205 65.2618C12.6375 65.2675 12.6696 65.2806 12.7187 65.31C12.8365 65.3806 12.9843 65.5069 13.1319 65.6817C13.4423 66.0492 13.6274 66.4775 13.6274 66.7629C13.6274 67.8085 13.9767 68.7408 14.3641 69.5931L14.364 69.5932L14.3682 69.6021C14.5311 69.9458 14.6109 70.1781 14.6376 70.3317C14.6441 70.3689 14.6466 70.396 14.6472 70.4148C14.6217 70.4264 14.5775 70.4427 14.5057 70.4592C14.3309 70.4995 14.0708 70.523 13.6948 70.5248C13.6121 70.5141 13.5363 70.5131 13.4796 70.5139C13.4721 70.514 13.4644 70.5141 13.4568 70.5143C13.4627 70.4975 13.4691 70.4799 13.476 70.4616ZM11.5657 67.4792C11.5657 67.4792 11.565 67.4781 11.5636 67.4757C11.5651 67.4779 11.5658 67.4791 11.5657 67.4792ZM14.6453 70.4508C14.6453 70.4507 14.6455 70.4492 14.6463 70.4466C14.6458 70.4496 14.6454 70.4509 14.6453 70.4508Z" stroke="#2DA4B1" stroke-width="1.24989"/>
<path d="M16.3476 74.5715C16.1364 74.4294 15.9176 74.3358 15.7192 74.2654C15.8441 74.1657 15.9356 74.0373 15.9909 73.8925C16.0587 73.7147 16.0597 73.5444 16.0514 73.4285C16.0445 73.3311 16.0278 73.237 16.0125 73.1619L16.3907 73.1241L16.2154 72.4226C16.1327 72.0919 16.1478 71.9319 16.1634 71.8732C16.1669 71.8598 16.1669 71.8574 16.1676 71.8573C16.1681 71.8571 16.1689 71.8584 16.1722 71.8568C16.2112 71.8372 16.3059 71.8106 16.4977 71.8055C16.6839 71.8006 16.8961 71.8163 17.1495 71.8358L17.1663 71.8371C17.1757 71.8404 17.1935 71.8473 17.2207 71.8609C17.2883 71.8947 17.3801 71.9525 17.492 72.0384C17.7152 72.2095 17.9713 72.4553 18.2111 72.7299C18.4512 73.005 18.6566 73.2881 18.7891 73.5265C18.8555 73.6461 18.8951 73.7392 18.9145 73.8036C18.919 73.8187 18.9219 73.8302 18.9236 73.8384L18.9173 73.867V73.8801C18.9117 73.8905 18.9045 73.9026 18.8958 73.9157C18.0949 73.9161 17.1311 73.9425 16.3476 74.5715ZM14.378 74.2927C14.376 74.2925 14.3749 74.2923 14.3749 74.2923C14.3748 74.2922 14.3758 74.2923 14.378 74.2927Z" stroke="#2DA4B1" stroke-width="1.24989"/>
<path d="M101.457 6.07122C101.601 6.02748 101.776 6.0288 102.058 6.1932L102.058 6.19322L102.063 6.19599C102.465 6.42568 102.878 6.4691 103.244 6.45766C103.48 6.45027 103.749 6.4151 103.986 6.38407C104.083 6.37133 104.175 6.35929 104.257 6.35014L104.274 6.34826L104.291 6.34546C105.533 6.13842 106.71 6.07343 107.801 6.34467C105.88 6.84636 103.958 6.89539 102.029 6.55092L102.009 6.54729L101.988 6.54501C101.976 6.54358 101.948 6.53948 101.881 6.48539C101.822 6.43722 101.776 6.3896 101.707 6.31827C101.671 6.2814 101.629 6.2382 101.577 6.18531C101.541 6.1499 101.501 6.11121 101.457 6.07122Z" stroke="#2DA4B1" stroke-width="1.24989"/>
<path d="M154.844 31.3454C153.32 30.5572 151.838 29.6411 150.624 28.4749C150.966 28.6613 151.288 28.8811 151.585 29.1281L151.585 29.1282L151.592 29.1338C152.895 30.1892 154.367 30.8212 155.776 31.4268C156.169 31.5953 156.556 31.7617 156.934 31.9347C158.068 32.5023 158.937 33.0033 159.449 33.8741C158.721 33.5972 158.021 33.221 157.303 32.7989C157.035 32.6414 156.76 32.4742 156.48 32.3039C155.952 31.9832 155.405 31.6514 154.856 31.3518L154.856 31.3517L154.844 31.3454ZM160.609 35.6895C161.047 36.0874 161.539 36.3811 161.93 36.615C161.962 36.6336 161.992 36.6519 162.022 36.6697C162.724 37.1054 163.275 37.7003 163.844 38.3805C163.944 38.5005 164.046 38.6242 164.149 38.7502C164.615 39.3183 165.12 39.9326 165.714 40.4608L165.718 40.464C166.415 41.0745 167.131 41.426 168.228 41.5946L169.358 41.7686L168.894 40.7231C168.848 40.6215 168.807 40.5315 168.77 40.4502C168.659 40.2088 168.582 40.0432 168.546 39.8734C168.514 39.7221 168.527 39.6291 168.642 39.4975L168.657 39.4798L168.671 39.461C168.807 39.2797 168.916 39.0654 168.941 38.8248C169.058 38.9953 169.204 39.1276 169.332 39.2287C169.511 39.3701 169.721 39.5001 169.899 39.6104C169.914 39.6191 169.928 39.6278 169.941 39.6363C170.143 39.7613 170.313 39.8693 170.455 39.9845C170.596 40.0989 170.674 40.1937 170.713 40.2731C171.175 41.1955 171.983 41.507 172.609 41.7126C172.681 41.736 172.749 41.7582 172.815 41.7794C173.381 41.9626 173.727 42.0747 173.972 42.3639L174.425 42.8995L174.905 42.3876C175.121 42.1574 175.276 42.0974 175.371 42.0804C175.473 42.0623 175.599 42.077 175.785 42.1521C175.945 42.2168 176.1 42.3037 176.294 42.4125C176.341 42.4391 176.391 42.467 176.444 42.4963C176.686 42.6303 176.995 42.7934 177.334 42.8717L177.404 42.8877H177.475C177.655 42.8877 177.801 42.824 177.875 42.788C177.957 42.748 178.034 42.6992 178.084 42.6671C178.095 42.6602 178.105 42.6537 178.115 42.6476C178.158 42.6198 178.19 42.6 178.222 42.5813C178.24 42.5711 178.253 42.564 178.264 42.5591C178.273 42.5545 178.278 42.553 178.278 42.5531L178.383 42.5178L178.47 42.4482C178.473 42.4459 178.476 42.4438 178.478 42.4418C178.492 42.4566 178.509 42.4782 178.527 42.5087C179.887 44.7742 181.139 46.9909 181.948 49.4894L181.95 49.4947C181.966 49.5441 181.977 49.5885 181.985 49.6275C181.941 49.613 181.889 49.5928 181.829 49.5654C181.446 49.3742 180.95 49.1597 180.427 49.1734C179.861 49.1883 179.366 49.4626 178.978 50.0032C178.967 50.0032 178.954 50.0027 178.941 50.0013C178.921 49.9993 178.904 49.9959 178.893 49.993C178.442 49.8138 177.977 49.656 177.532 49.505C177.406 49.462 177.281 49.4196 177.158 49.3774C176.585 49.1802 176.051 48.9832 175.561 48.7381L175.554 48.7347L175.547 48.7316C175.131 48.5357 174.669 48.3583 174.234 48.1912C173.988 48.0967 173.751 48.0054 173.535 47.916C172.904 47.6545 172.337 47.3668 171.848 46.9466C171.408 46.5171 170.88 46.365 170.347 46.437C169.844 46.505 169.382 46.7655 168.998 47.0641L168.982 47.0767L168.966 47.0903C168.474 47.5276 168.312 48.0386 168.342 48.548C168.363 48.9246 168.496 49.3089 168.593 49.5925C168.609 49.6383 168.624 49.6815 168.637 49.7216L168.651 49.7637L168.671 49.8034C168.769 49.9991 168.888 50.1657 168.978 50.2911L168.986 50.3032C169.085 50.4412 169.15 50.5349 169.201 50.6355L169.226 50.6859L169.26 50.7309C169.297 50.7809 169.32 50.8198 169.333 50.8481C169.339 50.8601 169.342 50.8692 169.344 50.8756C169.343 50.8774 169.342 50.8795 169.34 50.8817C169.308 50.9207 169.285 50.9371 169.275 50.9428C169.275 50.9429 169.275 50.9429 169.275 50.9429C169.266 50.9398 169.25 50.9323 169.227 50.9149L169.217 50.9072L169.206 50.8999C167.921 50.0164 166.485 49.4597 164.988 49.1427C164.949 49.1309 164.864 49.091 164.765 49.0106C164.661 48.9265 164.596 48.8413 164.57 48.7906L164.553 48.7558L164.531 48.7235C163.3 46.8766 161.369 46.4786 159.624 46.4786C159.195 46.4786 158.845 46.3533 158.486 46.1578C158.301 46.0569 158.122 45.9417 157.92 45.812L157.912 45.8069C157.721 45.6838 157.508 45.5473 157.283 45.424C157.219 45.387 157.151 45.3309 157.055 45.2395C157.037 45.2216 157.014 45.1997 156.989 45.1753C156.91 45.0971 156.804 44.9934 156.704 44.9105C156.558 44.7898 156.362 44.6577 156.108 44.5891C156.1 44.587 156.092 44.5849 156.084 44.5829C156.136 44.556 156.186 44.5267 156.234 44.4945C156.423 44.3661 156.615 44.1547 156.652 43.8391C156.684 43.5655 156.582 43.3329 156.504 43.1877C156.423 43.0369 156.312 42.8812 156.201 42.7329C156.009 42.4487 155.769 42.2136 155.562 42.0195C155.511 41.9721 155.463 41.9275 155.417 41.8848C155.256 41.7355 155.12 41.6095 154.996 41.4701C154.846 41.3004 154.751 41.1498 154.703 40.9944C154.657 40.8461 154.639 40.6516 154.709 40.3721L154.713 40.3577L154.716 40.3431C154.793 39.954 154.539 39.6913 154.451 39.6095C154.331 39.4976 154.183 39.4106 154.051 39.3443C153.779 39.2072 153.426 39.0869 153.07 38.9992C152.713 38.9111 152.318 38.8476 151.956 38.8405C151.644 38.8345 151.214 38.8651 150.887 39.0918C150.585 39.2698 150.341 39.3428 150.118 39.3614C149.883 39.3809 149.626 39.3446 149.29 39.2438L149.202 39.2174H149.16C149.136 39.212 149.098 39.2035 149.062 39.1976C149.008 39.1885 148.908 39.1754 148.792 39.1912C148.727 39.2001 148.652 39.2189 148.576 39.2542C147.558 39.477 146.51 39.4628 145.382 39.4351C145.335 39.4339 145.288 39.4327 145.24 39.4315C144.147 39.4042 142.974 39.3748 141.811 39.6061C139.555 39.996 137.577 40.7031 135.75 41.9723C135.651 42.0374 135.529 42.0617 135.421 42.0347L135.382 42.025L135.342 42.0203C135.171 42.0001 134.996 41.978 134.818 41.9555C133.716 41.8158 132.501 41.6619 131.233 41.8732L131.209 41.8773L131.201 41.8793C131.197 41.879 131.191 41.8784 131.183 41.8771C131.151 41.872 131.102 41.8592 131.039 41.8338C130.912 41.7833 130.774 41.7021 130.659 41.6167C130.606 41.575 130.554 41.5357 130.509 41.5013L130.495 41.491C130.45 41.4575 130.412 41.4289 130.376 41.4001C130.294 41.3356 130.247 41.292 130.218 41.2576C130.205 41.2421 130.199 41.2319 130.196 41.2265C130.193 41.2216 130.193 41.2194 130.193 41.2184C130.192 41.2175 130.191 41.2121 130.191 41.1998C130.192 41.187 130.194 41.164 130.203 41.1285L130.21 41.0972L130.214 41.0728C130.219 41.0704 130.224 41.0677 130.231 41.0646C130.278 41.0432 130.341 41.0234 130.448 40.9931C130.457 40.9905 130.466 40.9878 130.476 40.985C130.567 40.9596 130.693 40.9239 130.812 40.8764L130.836 40.8668L130.859 40.8552C131.043 40.7633 131.238 40.7321 131.487 40.7321C131.616 40.732 131.747 40.7401 131.902 40.7497L131.91 40.7502C132.056 40.7594 132.224 40.7699 132.395 40.7699C134.766 40.7699 136.58 39.5582 137.509 37.3629L137.509 37.363L137.513 37.3515C137.629 37.0616 137.667 36.7527 137.538 36.4441C137.447 36.2261 137.286 36.058 137.187 35.9602C136.687 35.2078 136.969 34.0821 137.757 33.6621L137.771 33.6547L137.784 33.6465C138.135 33.4362 138.547 33.2316 138.946 33.0984L139.001 33.0801L139.052 33.0519C139.402 32.8572 139.827 32.5693 139.984 32.0981C140.16 31.5719 139.929 31.084 139.623 30.6891C139.598 30.6551 139.571 30.6209 139.548 30.5911C139.543 30.5846 139.538 30.5783 139.533 30.5722C139.504 30.5349 139.481 30.5037 139.459 30.4742C139.445 30.4546 139.434 30.4381 139.425 30.4242C139.433 30.4118 139.44 30.4031 139.446 30.3971C139.472 30.3963 139.518 30.3995 139.603 30.414C139.645 30.4212 139.689 30.4296 139.742 30.4398L139.749 30.4413C139.797 30.4504 139.851 30.4608 139.908 30.4706C140.146 30.5278 140.421 30.5607 140.646 30.5875C140.737 30.5984 140.82 30.6082 140.889 30.6184C141.178 30.6608 141.399 30.7203 141.594 30.842L141.612 30.8534L141.631 30.8635C142.018 31.0696 142.405 31.1426 142.781 31.0829C143.147 31.0248 143.442 30.8504 143.671 30.6651C143.897 30.482 144.083 30.2666 144.226 30.0926C144.274 30.0348 144.315 29.9841 144.351 29.9392C144.436 29.8344 144.496 29.7608 144.554 29.7017C145.033 29.2561 145.367 29.2414 145.6 29.3009C145.897 29.3766 146.209 29.6193 146.528 29.9738L146.536 29.9822L146.544 29.9903C148.632 32.1486 151.218 33.3847 153.689 34.5665C154.012 34.721 154.333 34.8745 154.651 35.0291C154.897 35.1601 155.126 35.272 155.346 35.3796C155.698 35.5513 156.026 35.7119 156.365 35.9212C156.878 36.2374 157.289 36.5996 157.559 37.1093L157.56 37.111C157.699 37.372 157.77 37.5562 157.797 37.6793C157.801 37.6968 157.804 37.7118 157.806 37.7244C157.714 37.7541 157.55 37.7803 157.28 37.7803C156.886 37.7803 156.627 37.7737 156.377 37.6737L156.36 37.6669L156.343 37.6611C156.326 37.6555 156.308 37.6493 156.288 37.6426C156.09 37.5755 155.747 37.4589 155.426 37.4589C155.23 37.4589 154.983 37.4996 154.758 37.6623C154.529 37.8274 154.396 38.065 154.331 38.3196C154.256 38.5901 154.279 38.862 154.406 39.105C154.524 39.3285 154.703 39.4747 154.843 39.5682C154.985 39.6626 155.139 39.7367 155.252 39.7901C155.265 39.7963 155.278 39.8022 155.29 39.8079C155.397 39.859 155.466 39.8913 155.521 39.9244L155.551 39.9427L155.584 39.9575L155.592 39.9613C156.398 40.3274 157.219 40.7008 157.973 41.0046C158.102 41.0865 158.291 41.1913 158.51 41.2382C158.8 41.3004 159.165 41.2609 159.461 40.965C159.714 40.7125 159.817 40.3836 159.77 40.0566C159.729 39.7708 159.582 39.5314 159.414 39.3537C159.368 39.2958 159.336 39.2509 159.313 39.2149C159.322 39.2068 159.332 39.1978 159.344 39.1879L159.365 39.1698L159.385 39.1497C159.941 38.5941 160.304 37.9327 160.195 37.2145C160.121 36.7318 159.851 36.3325 159.473 36.0067C159.587 36.0561 159.713 36.1029 159.851 36.1373L160.392 36.2726L160.588 35.7505C160.595 35.7302 160.602 35.7099 160.609 35.6895ZM157.809 37.7823C157.809 37.7823 157.809 37.7818 157.809 37.7808L157.809 37.7823ZM157.857 37.7033C157.858 37.7027 157.859 37.7024 157.859 37.7024L157.857 37.7033ZM149.193 39.2249C149.193 39.225 149.191 39.2247 149.186 39.2235C149.19 39.2242 149.192 39.2247 149.193 39.2249ZM181.995 49.79C181.995 49.7901 181.995 49.7894 181.995 49.7879L181.995 49.79ZM167.761 37.0241C167.985 37.2759 168.189 37.5163 168.364 37.7647C168.303 37.7237 168.244 37.689 168.194 37.6602C168.111 37.613 168.06 37.5864 168.018 37.5642C167.984 37.5457 167.954 37.5303 167.917 37.5086C167.682 37.3294 167.404 37.1515 167.152 36.9908C167.025 36.9095 166.904 36.8326 166.8 36.7622C166.442 36.5203 166.159 36.2881 165.96 36.0047L165.954 35.9963L165.948 35.9881C165.879 35.8962 165.802 35.8251 165.739 35.7729C165.675 35.7202 165.609 35.6746 165.557 35.6392C165.547 35.6326 165.538 35.6263 165.529 35.6204C165.744 35.3719 165.964 35.1876 166.136 35.1216C166.178 35.1054 166.205 35.1013 166.22 35.1006C166.232 35.1 166.237 35.1016 166.24 35.1029C166.243 35.1039 166.314 35.1301 166.418 35.31C166.749 35.8988 167.194 36.3934 167.587 36.8294C167.646 36.8956 167.704 36.9605 167.761 37.0241ZM165.332 35.4781C165.332 35.4781 165.333 35.4794 165.335 35.4821C165.333 35.4794 165.332 35.4781 165.332 35.4781Z" stroke="#2DA4B1" stroke-width="1.24989"/>
<path d="M165.374 28.5405C165.555 28.6326 165.723 28.7446 165.886 28.8708C166.108 29.0426 166.317 29.2374 166.539 29.4506C166.565 29.4756 166.592 29.501 166.618 29.5267C166.812 29.7127 167.021 29.9137 167.239 30.0951L167.239 30.0952L167.249 30.103C167.296 30.1405 167.332 30.1748 167.383 30.2224C167.413 30.2509 167.448 30.2841 167.494 30.3256C167.592 30.4142 167.741 30.5438 167.928 30.6331C168.136 30.7318 168.392 30.7829 168.678 30.7095C168.925 30.6458 169.138 30.5025 169.325 30.3249C169.346 30.3271 169.376 30.3327 169.413 30.3441C169.45 30.3554 169.49 30.3709 169.531 30.3902C171.455 31.5764 173.235 32.9116 174.944 34.3979L174.954 34.4063L174.964 34.4143C175.12 34.539 175.239 34.6535 175.308 34.7497C175.268 34.7334 175.219 34.7093 175.164 34.6756C175.08 34.6251 174.995 34.5629 174.913 34.4973L174.88 34.471L174.844 34.4494C174.685 34.3545 174.521 34.2488 174.349 34.1383C173.786 33.7771 173.144 33.3648 172.386 33.1104C172.376 33.1064 172.365 33.1023 172.354 33.0981C172.085 32.9965 171.669 32.8397 171.247 32.8679C171.001 32.8843 170.751 32.961 170.518 33.1258C170.292 33.2865 170.111 33.5101 169.965 33.7784L169.951 33.8043L169.943 33.8222C169.903 33.8221 169.841 33.8155 169.75 33.7961C169.648 33.7743 169.537 33.743 169.402 33.7043C168.273 33.3718 167.423 32.7201 166.826 31.7339C166.314 30.711 165.811 29.6594 165.374 28.5405Z" stroke="#2DA4B1" stroke-width="1.24989"/>
<path d="M195.03 71.0378C195.904 72.3782 196.551 73.8693 197.122 75.456C197.028 75.3011 196.938 75.1495 196.852 75.0002L196.853 75.0002L196.847 74.9912C196.153 73.8223 195.619 72.5913 195.09 71.3252C195.033 71.1889 194.976 71.052 194.919 70.9147C194.897 70.8617 194.875 70.8088 194.853 70.7557C194.91 70.8489 194.968 70.9416 195.027 71.0336L195.027 71.0337L195.03 71.0378Z" stroke="#2DA4B1" stroke-width="1.24989"/>
<path d="M139.861 12.2181C140.342 12.2798 140.835 12.3957 141.368 12.5208C141.418 12.5327 141.469 12.5446 141.52 12.5566C141.769 12.6148 142.026 12.6739 142.29 12.7259C142.287 12.7628 142.286 12.7999 142.286 12.8369C142.286 13.1307 142.371 13.4053 142.556 13.6287C142.733 13.8428 142.96 13.9594 143.158 14.0254C143.169 14.0293 143.181 14.033 143.193 14.0367L143.208 14.107C143.317 14.5957 143.565 14.9424 143.84 15.217C144 15.377 144.211 15.5478 144.393 15.6951C144.434 15.7284 144.474 15.7605 144.512 15.791C144.003 15.7064 143.525 15.8078 143.115 15.9425C143.088 15.9493 143.061 15.956 143.034 15.9626C142.092 16.1989 141.582 16.3268 141.062 15.8538L141.062 15.8537L141.053 15.8459C140.937 15.7441 140.813 15.6656 140.684 15.6106C140.732 15.5712 140.779 15.5289 140.824 15.4834C141.126 15.1771 141.293 14.7667 141.266 14.2411L141.25 13.9437L141.009 13.7686C140.524 13.4154 140.142 12.8844 139.861 12.2181Z" stroke="#2DA4B1" stroke-width="1.24989"/>
<path d="M195.999 113.561C195.988 113.584 195.977 113.607 195.967 113.63C195.928 113.379 195.979 113.116 196.098 112.779C196.148 112.637 196.202 112.504 196.262 112.356C196.293 112.28 196.325 112.2 196.359 112.113C196.443 111.9 196.53 111.663 196.596 111.408V111.414L196.596 111.431C196.627 112.004 196.464 112.521 196.213 113.095C196.149 113.241 196.076 113.397 195.999 113.561Z" stroke="#2DA4B1" stroke-width="1.24989"/>
<path d="M135.555 8.78796C135.759 9.21278 136.023 9.54946 136.315 9.82841C136.257 9.78624 136.201 9.74236 136.148 9.6966C135.889 9.47168 135.678 9.18579 135.555 8.78796Z" stroke="#2DA4B1" stroke-width="1.24989"/>
<path d="M149.09 35.8193L149.081 35.7952L149.069 35.7719C149.011 35.6552 148.959 35.5232 148.902 35.3636C148.889 35.3271 148.875 35.2882 148.861 35.2476C148.816 35.1222 148.766 34.9807 148.712 34.8455C148.579 34.5136 148.393 34.139 148.064 33.8078C148.091 33.7947 148.12 33.7802 148.151 33.7647C148.21 33.7949 148.295 33.8486 148.407 33.9435C148.618 34.1223 148.845 34.3816 149.043 34.673C149.242 34.9651 149.394 35.2608 149.474 35.5009C149.514 35.6211 149.53 35.7086 149.533 35.7633C149.533 35.7646 149.533 35.7659 149.533 35.7672C149.489 35.8217 149.433 35.8823 149.37 35.9362C149.31 35.9879 149.262 36.018 149.229 36.0344C149.193 36.0042 149.136 35.9343 149.09 35.8193ZM149.532 35.7992C149.532 35.7992 149.532 35.7986 149.532 35.7976L149.532 35.7992Z" stroke="#2DA4B1" stroke-width="1.24989"/>
</svg>
